<?xml version="1.0" encoding="utf-8"?>
<!-- Generator: Adobe Illustrator 25.4.1, SVG Export Plug-In . SVG Version: 6.00 Build 0)  -->
<svg version="1.1" id="Capa_1" xmlns="http://www.w3.org/2000/svg" xmlns:xlink="http://www.w3.org/1999/xlink" x="0px" y="0px"
	 viewBox="0 0 1080 1080" style="enable-background:new 0 0 1080 1080;" xml:space="preserve">
<style type="text/css">
	.st0{fill:#1D65A6;}
	.st1{fill:url(#SVGID_1_);}
	.st2{fill:url(#SVGID_00000128470646188400908450000011167147839603305622_);}
	.st3{fill:url(#SVGID_00000010304913706113090720000004310749391213949111_);}
	.st4{fill:url(#SVGID_00000166671634774662010570000017344587442701542304_);}
	.st5{fill:url(#SVGID_00000116206230987137568170000016787012589584936873_);}
	.st6{fill:url(#SVGID_00000163050084982198817540000017013153267852113795_);}
	.st7{fill:url(#SVGID_00000131362758096173959200000011436199840882061727_);}
	.st8{fill:url(#SVGID_00000119829913482491990280000001535668343511438208_);}
	.st9{fill:url(#SVGID_00000044871276177476129370000004490587162078397351_);}
	.st10{fill:url(#SVGID_00000169538098811581040330000010237573421173971602_);}
</style>
<rect x="127.9" y="280.9" transform="matrix(0.7071 0.7071 -0.7071 0.7071 255.5808 -15.6226)" class="st0" width="37.5" height="39.5"/>
<rect x="169.6" y="255.1" transform="matrix(0.7071 0.7071 -0.7071 0.7071 247.2497 -51.589)" class="st0" width="32.7" height="35.2"/>
<rect x="144.8" y="243" transform="matrix(0.7071 0.7071 -0.7071 0.7071 224.0927 -35.3464)" class="st0" width="19.7" height="19.7"/>
<rect x="160.1" y="230.3" transform="matrix(0.7071 0.7071 -0.7071 0.7071 215.5856 -48.1299)" class="st0" width="11.7" height="11.7"/>
<rect x="546.4" y="280.5" transform="matrix(0.7071 0.7071 -0.7071 0.7071 402.3468 -320.9199)" class="st0" width="84.3" height="89.5"/>
<rect x="731.9" y="252.4" transform="matrix(0.7071 0.7071 -0.7071 0.7071 445.0341 -463.4847)" class="st0" width="100.2" height="106.2"/>
<rect x="629.6" y="220.1" transform="matrix(0.7071 0.7071 -0.7071 0.7071 383.7594 -397.5593)" class="st0" width="84.3" height="88.8"/>
<rect x="710.2" y="171.6" transform="matrix(0.7071 0.7071 -0.7071 0.7071 364.4963 -464.9873)" class="st0" width="66.7" height="71.9"/>
<rect x="829.6" y="189.3" transform="matrix(0.7071 0.7071 -0.7071 0.7071 417.3341 -546.4218)" class="st0" width="77.2" height="82.4"/>
<rect x="789.3" y="137.1" transform="matrix(0.7071 0.7071 -0.7071 0.7071 358.7574 -529.298)" class="st0" width="58.1" height="62.6"/>
<rect x="752.3" y="101.2" transform="matrix(0.7071 0.7071 -0.7071 0.7071 311.6211 -508.7136)" class="st0" width="35.1" height="41.3"/>
<path class="st0" d="M1013.3,374.9c-20.5-27.1-43.9-45.9-70-56.4c-26.1-10.5-63.8-15.8-113.1-15.8h-92.8h-128h-77L429,638
	l-98.3-335.3H126.3V863h110V406.1L374.6,863h89.8l140.9-456.8V863h4.1h128h5.4V654.9h92.4c39.9,0,69.3-2.5,88-7.4
	c18.7-4.9,38.1-14.9,58.1-30c20-15,35.4-35.7,46.4-62c10.9-26.3,16.4-53.2,16.4-80.9C1044.1,435.3,1033.9,402,1013.3,374.9z
	 M892.3,530.5c-13.1,15.1-36,22.6-68.5,22.6h-85.4V404.5h85c29.8,0,52.1,6.7,66.7,20.1c14.6,13.4,22,31.5,22,54.2
	C912,498.2,905.4,515.4,892.3,530.5z"/>
<rect x="225.7" y="257.2" transform="matrix(0.7071 0.7071 -0.7071 0.7071 281.5782 -96.5969)" class="st0" width="63.4" height="68.8"/>
<rect x="198.4" y="193.5" transform="matrix(0.7071 0.7071 -0.7071 0.7071 223.1159 -93.9997)" class="st0" width="53.3" height="57.7"/>
<rect x="282.5" y="215.7" transform="matrix(0.7071 0.7071 -0.7071 0.7071 261.0723 -146.1025)" class="st0" width="48.9" height="52.9"/>
<g>
	<linearGradient id="SVGID_1_" gradientUnits="userSpaceOnUse" x1="567.229" y1="185.75" x2="567.229" y2="965.3758">
		<stop  offset="0" style="stop-color:#1DA1F2"/>
		<stop  offset="1" style="stop-color:#1D72A6"/>
	</linearGradient>
	<path class="st1" d="M995.3,374.9c-20.5-27.1-43.9-45.9-70-56.4c-20.9-8.4-49.2-13.5-84.8-15.2l-63.6-63.6l-63,63h-20.7l33.7-33.7
		l-59.6-59.6L607.6,269l33.7,33.7H616l-32.3-32.3l-32.3,32.3h-37L411,638l-98.3-335.3h-21.6l7.3-7.3l-44.8-44.8l-44.8,44.8l7.3,7.3
		h-45.7l-26.1-26.1l-26.1,26.1h-9.8V863h110V406.1L356.6,863h89.8l140.9-456.8V863h4.1h128h5.4V654.9h92.4c39.9,0,69.3-2.5,88-7.4
		c18.7-4.9,38.1-14.9,58.1-30c20-15,35.4-35.7,46.4-62c10.9-26.3,16.4-53.2,16.4-80.9C1026.1,435.3,1015.9,402,995.3,374.9z
		 M874.3,530.5c-13.1,15.1-36,22.6-68.5,22.6h-85.4V404.5h85c29.8,0,52.1,6.7,66.7,20.1c14.6,13.4,22,31.5,22,54.2
		C894,498.2,887.4,515.4,874.3,530.5z"/>
	
		<linearGradient id="SVGID_00000107554157511392969170000017428348899054753191_" gradientUnits="userSpaceOnUse" x1="183.3128" y1="185.75" x2="183.3128" y2="965.3758">
		<stop  offset="0" style="stop-color:#1DA1F2"/>
		<stop  offset="1" style="stop-color:#1D72A6"/>
	</linearGradient>
	<polygon style="fill:url(#SVGID_00000107554157511392969170000017428348899054753191_);" points="183.3,298.3 206.4,275.2 
		183.3,252.2 160.2,275.2 	"/>
	
		<linearGradient id="SVGID_00000078006839524992119060000011651559974733464984_" gradientUnits="userSpaceOnUse" x1="153.0261" y1="185.75" x2="153.0261" y2="965.3758">
		<stop  offset="0" style="stop-color:#1DA1F2"/>
		<stop  offset="1" style="stop-color:#1D72A6"/>
	</linearGradient>
	<polygon style="fill:url(#SVGID_00000078006839524992119060000011651559974733464984_);" points="167,254.5 153,240.6 139.1,254.5 
		153,268.5 	"/>
	
		<linearGradient id="SVGID_00000000183384410598869000000001820910297693390477_" gradientUnits="userSpaceOnUse" x1="164.2035" y1="185.75" x2="164.2035" y2="965.3758">
		<stop  offset="0" style="stop-color:#1DA1F2"/>
		<stop  offset="1" style="stop-color:#1D72A6"/>
	</linearGradient>
	<polygon style="fill:url(#SVGID_00000000183384410598869000000001820910297693390477_);" points="172.5,237.9 164.2,229.6 
		155.9,237.9 164.2,246.1 	"/>
	
		<linearGradient id="SVGID_00000095319553491112478560000015036358526069486210_" gradientUnits="userSpaceOnUse" x1="738.7203" y1="185.75" x2="738.7203" y2="965.3758">
		<stop  offset="0" style="stop-color:#1DA1F2"/>
		<stop  offset="1" style="stop-color:#1D72A6"/>
	</linearGradient>
	<polygon style="fill:url(#SVGID_00000095319553491112478560000015036358526069486210_);" points="785.9,212.3 738.7,165.1 
		691.5,212.3 738.7,259.5 	"/>
	
		<linearGradient id="SVGID_00000134209661191256214710000007783322909921139373_" gradientUnits="userSpaceOnUse" x1="863.415" y1="185.75" x2="863.415" y2="965.3758">
		<stop  offset="0" style="stop-color:#1DA1F2"/>
		<stop  offset="1" style="stop-color:#1D72A6"/>
	</linearGradient>
	<polygon style="fill:url(#SVGID_00000134209661191256214710000007783322909921139373_);" points="863.4,290 918,235.4 863.4,180.8 
		808.8,235.4 	"/>
	
		<linearGradient id="SVGID_00000044177443926224215880000012481441785061585547_" gradientUnits="userSpaceOnUse" x1="813.7103" y1="185.75" x2="813.7103" y2="965.3758">
		<stop  offset="0" style="stop-color:#1DA1F2"/>
		<stop  offset="1" style="stop-color:#1D72A6"/>
	</linearGradient>
	<polygon style="fill:url(#SVGID_00000044177443926224215880000012481441785061585547_);" points="813.7,214.1 854.8,173 
		813.7,131.9 772.6,173 	"/>
	
		<linearGradient id="SVGID_00000021817080678222106070000015562461435862044032_" gradientUnits="userSpaceOnUse" x1="764.6993" y1="185.75" x2="764.6993" y2="965.3758">
		<stop  offset="0" style="stop-color:#1DA1F2"/>
		<stop  offset="1" style="stop-color:#1D72A6"/>
	</linearGradient>
	<polygon style="fill:url(#SVGID_00000021817080678222106070000015562461435862044032_);" points="789.5,127 764.7,102.2 739.9,127 
		764.7,151.8 	"/>
	
		<linearGradient id="SVGID_00000104684374383070900220000007739268772805418374_" gradientUnits="userSpaceOnUse" x1="221.5893" y1="185.75" x2="221.5893" y2="965.3758">
		<stop  offset="0" style="stop-color:#1DA1F2"/>
		<stop  offset="1" style="stop-color:#1D72A6"/>
	</linearGradient>
	<polygon style="fill:url(#SVGID_00000104684374383070900220000007739268772805418374_);" points="259.3,225.8 221.6,188 
		183.9,225.8 221.6,263.5 	"/>
	
		<linearGradient id="SVGID_00000118365979694685176450000001354741343279094970_" gradientUnits="userSpaceOnUse" x1="303.5861" y1="185.75" x2="303.5861" y2="965.3758">
		<stop  offset="0" style="stop-color:#1DA1F2"/>
		<stop  offset="1" style="stop-color:#1D72A6"/>
	</linearGradient>
	<polygon style="fill:url(#SVGID_00000118365979694685176450000001354741343279094970_);" points="338.1,245.4 303.6,210.8 
		269,245.4 303.6,280 	"/>
</g>
</svg>
